<?xml version="1.0" encoding="UTF-8" standalone="no"?><svg xmlns="http://www.w3.org/2000/svg" xmlns:xlink="http://www.w3.org/1999/xlink" contentScriptType="application/ecmascript" contentStyleType="text/css" height="360px" preserveAspectRatio="none" style="width:440px;height:360px;" version="1.1" viewBox="0 0 440 360" width="440px" zoomAndPan="magnify"><defs><filter height="300%" id="f1ee00t6raxzyx" width="300%" x="-1" y="-1"><feGaussianBlur result="blurOut" stdDeviation="2.0"/><feColorMatrix in="blurOut" result="blurOut2" type="matrix" values="0 0 0 0 0 0 0 0 0 0 0 0 0 0 0 0 0 0 .4 0"/><feOffset dx="4.0" dy="4.0" in="blurOut2" result="blurOut3"/><feBlend in="SourceGraphic" in2="blurOut3" mode="normal"/></filter></defs><g><!--MD5=[389f2f6d739a380e12d14d557584892f]
class Studium--><rect fill="#FEFECE" filter="url(#f1ee00t6raxzyx)" height="48" id="Studium" style="stroke: #A80036; stroke-width: 1.5;" width="78" x="237.5" y="281"/><ellipse cx="252.5" cy="297" fill="#B4A7E5" rx="11" ry="11" style="stroke: #A80036; stroke-width: 1.0;"/><path d="M253.5,294 L253.5,300 L255.5,300 L255.9844,300 L256.5,300.625 L256.5,301 L256.5,301.375 L255.9844,302 L255.5,302 L249.5,302 L249.0156,302 L248.5,301.375 L248.5,301 L248.5,300.625 L249.0156,300 L249.5,300 L251.5,300 L251.5,294 L249.5,294 L249.0156,294 L248.5,293.375 L248.5,293 L248.5,292.625 L249.0156,292 L249.5,292 L255.5,292 L255.9844,292 L256.5,292.625 L256.5,293 L256.5,293.375 L255.9844,294 L255.5,294 L253.5,294 Z "/><text fill="#000000" font-family="sans-serif" font-size="12" font-style="italic" lengthAdjust="spacingAndGlyphs" textLength="46" x="266.5" y="301.9102">Studium</text><line style="stroke: #A80036; stroke-width: 1.5;" x1="238.5" x2="314.5" y1="313" y2="313"/><line style="stroke: #A80036; stroke-width: 1.5;" x1="238.5" x2="314.5" y1="321" y2="321"/><!--MD5=[c134e946b10969ed32e90c4ef9f363a9]
class Studiengang--><rect fill="#FEFECE" filter="url(#f1ee00t6raxzyx)" height="48" id="Studiengang" style="stroke: #A80036; stroke-width: 1.5;" width="102" x="191.5" y="134"/><ellipse cx="206.5" cy="150" fill="#ADD1B2" rx="11" ry="11" style="stroke: #A80036; stroke-width: 1.0;"/><path d="M208.5,146.5 Q208.7031,146 208.9375,145.75 Q209.1719,145.5 209.4375,145.5 Q209.9063,145.5 210.2031,145.7813 Q210.5,146.0625 210.5,146.7188 L210.5,148.2813 Q210.5,148.9375 210.2188,149.2188 Q209.9375,149.5 209.5,149.5 Q209.1094,149.5 208.8594,149.3281 Q208.6094,149.1563 208.5,148.7031 Q208.4531,148.3906 208.2813,148.2188 Q207.9688,147.8906 207.4063,147.7031 Q206.8438,147.5 206.2813,147.5 Q205.5781,147.5 204.9844,147.7813 Q204.4063,148.0625 203.9531,148.6875 Q203.5,149.3125 203.5,150.1719 L203.5,151.0938 Q203.5,152.125 204.3438,152.8125 Q205.1875,153.5 206.6875,153.5 Q207.5781,153.5 208.2031,153.2969 Q208.5625,153.1875 208.9688,152.8281 Q209.2344,152.625 209.375,152.5625 Q209.5156,152.5 209.6875,152.5 Q210.0156,152.5 210.25,152.7656 Q210.5,153.0156 210.5,153.375 Q210.5,153.7188 210.1563,154.125 Q209.6563,154.7188 208.8594,155.0469 Q207.8125,155.5 206.5313,155.5 Q205.0313,155.5 203.8281,154.9063 Q202.8594,154.4375 202.1719,153.4219 Q201.5,152.4063 201.5,151.2031 L201.5,150.1094 Q201.5,148.8594 202.0938,147.7656 Q202.7031,146.6719 203.75,146.0938 Q204.8125,145.5 206,145.5 Q206.7188,145.5 207.3438,145.75 Q207.9688,146 208.5,146.5 Z "/><text fill="#000000" font-family="sans-serif" font-size="12" lengthAdjust="spacingAndGlyphs" textLength="70" x="220.5" y="154.9102">Studiengang</text><line style="stroke: #A80036; stroke-width: 1.5;" x1="192.5" x2="292.5" y1="166" y2="166"/><line style="stroke: #A80036; stroke-width: 1.5;" x1="192.5" x2="292.5" y1="174" y2="174"/><!--MD5=[c34c1147d0c58f3346ae95b5c71b382f]
class Studien und Prüfungsordnung--><rect fill="#FEFECE" filter="url(#f1ee00t6raxzyx)" height="48" id="Studien und Prüfungsordnung" style="stroke: #A80036; stroke-width: 1.5;" width="197" x="232" y="8"/><ellipse cx="247" cy="24" fill="#ADD1B2" rx="11" ry="11" style="stroke: #A80036; stroke-width: 1.0;"/><path d="M249,20.5 Q249.2031,20 249.4375,19.75 Q249.6719,19.5 249.9375,19.5 Q250.4063,19.5 250.7031,19.7813 Q251,20.0625 251,20.7188 L251,22.2813 Q251,22.9375 250.7188,23.2188 Q250.4375,23.5 250,23.5 Q249.6094,23.5 249.3594,23.3281 Q249.1094,23.1563 249,22.7031 Q248.9531,22.3906 248.7813,22.2188 Q248.4688,21.8906 247.9063,21.7031 Q247.3438,21.5 246.7813,21.5 Q246.0781,21.5 245.4844,21.7813 Q244.9063,22.0625 244.4531,22.6875 Q244,23.3125 244,24.1719 L244,25.0938 Q244,26.125 244.8438,26.8125 Q245.6875,27.5 247.1875,27.5 Q248.0781,27.5 248.7031,27.2969 Q249.0625,27.1875 249.4688,26.8281 Q249.7344,26.625 249.875,26.5625 Q250.0156,26.5 250.1875,26.5 Q250.5156,26.5 250.75,26.7656 Q251,27.0156 251,27.375 Q251,27.7188 250.6563,28.125 Q250.1563,28.7188 249.3594,29.0469 Q248.3125,29.5 247.0313,29.5 Q245.5313,29.5 244.3281,28.9063 Q243.3594,28.4375 242.6719,27.4219 Q242,26.4063 242,25.2031 L242,24.1094 Q242,22.8594 242.5938,21.7656 Q243.2031,20.6719 244.25,20.0938 Q245.3125,19.5 246.5,19.5 Q247.2188,19.5 247.8438,19.75 Q248.4688,20 249,20.5 Z "/><text fill="#000000" font-family="sans-serif" font-size="12" lengthAdjust="spacingAndGlyphs" textLength="165" x="261" y="28.9102">Studien und Prüfungsordnung</text><line style="stroke: #A80036; stroke-width: 1.5;" x1="233" x2="428" y1="40" y2="40"/><line style="stroke: #A80036; stroke-width: 1.5;" x1="233" x2="428" y1="48" y2="48"/><!--MD5=[48a85152e4a857c4588aecc0be42e03b]
class Grundständiger Studiengang--><rect fill="#FEFECE" filter="url(#f1ee00t6raxzyx)" height="48" id="Grundständiger Studiengang" style="stroke: #A80036; stroke-width: 1.5;" width="191" x="6" y="8"/><ellipse cx="21" cy="24" fill="#ADD1B2" rx="11" ry="11" style="stroke: #A80036; stroke-width: 1.0;"/><path d="M23,20.5 Q23.2031,20 23.4375,19.75 Q23.6719,19.5 23.9375,19.5 Q24.4063,19.5 24.7031,19.7813 Q25,20.0625 25,20.7188 L25,22.2813 Q25,22.9375 24.7188,23.2188 Q24.4375,23.5 24,23.5 Q23.6094,23.5 23.3594,23.3281 Q23.1094,23.1563 23,22.7031 Q22.9531,22.3906 22.7813,22.2188 Q22.4688,21.8906 21.9063,21.7031 Q21.3438,21.5 20.7813,21.5 Q20.0781,21.5 19.4844,21.7813 Q18.9063,22.0625 18.4531,22.6875 Q18,23.3125 18,24.1719 L18,25.0938 Q18,26.125 18.8438,26.8125 Q19.6875,27.5 21.1875,27.5 Q22.0781,27.5 22.7031,27.2969 Q23.0625,27.1875 23.4688,26.8281 Q23.7344,26.625 23.875,26.5625 Q24.0156,26.5 24.1875,26.5 Q24.5156,26.5 24.75,26.7656 Q25,27.0156 25,27.375 Q25,27.7188 24.6563,28.125 Q24.1563,28.7188 23.3594,29.0469 Q22.3125,29.5 21.0313,29.5 Q19.5313,29.5 18.3281,28.9063 Q17.3594,28.4375 16.6719,27.4219 Q16,26.4063 16,25.2031 L16,24.1094 Q16,22.8594 16.5938,21.7656 Q17.2031,20.6719 18.25,20.0938 Q19.3125,19.5 20.5,19.5 Q21.2188,19.5 21.8438,19.75 Q22.4688,20 23,20.5 Z "/><text fill="#000000" font-family="sans-serif" font-size="12" lengthAdjust="spacingAndGlyphs" textLength="159" x="35" y="28.9102">Grundständiger Studiengang</text><line style="stroke: #A80036; stroke-width: 1.5;" x1="7" x2="196" y1="40" y2="40"/><line style="stroke: #A80036; stroke-width: 1.5;" x1="7" x2="196" y1="48" y2="48"/><!--MD5=[f20ffe57f06d825154e8f5a2cb89707f]
class Abschluss--><rect fill="#FEFECE" filter="url(#f1ee00t6raxzyx)" height="89.5078" id="Abschluss" style="stroke: #A80036; stroke-width: 1.5;" width="116" x="65.5" y="260"/><ellipse cx="92.2" cy="276" fill="#EB937F" rx="11" ry="11" style="stroke: #A80036; stroke-width: 1.0;"/><path d="M90.7,277 L90.7,279 L94.7,279 L94.7,278 L94.7,277.5156 L95.325,277 L95.7,277 L96.075,277 L96.7,277.5156 L96.7,278 L96.7,281 L88.7,281 L88.2156,281 L87.7,280.375 L87.7,280 L87.7,279.625 L88.2156,279 L88.7,279 L88.7,279 L88.7,273 L88.7,273 L88.2156,273 L87.7,272.375 L87.7,272 L87.7,271.625 L88.2156,271 L88.7,271 L96.7,271 L96.7,274 L96.7,274.4844 L96.075,275 L95.7,275 L95.325,275 L94.7,274.4844 L94.7,274 L94.7,273 L90.7,273 L90.7,275 L91.7,275 L91.7,274.5156 L91.7,274.5156 L92.325,274 L92.7,274 L93.075,274 L93.7,274.5156 L93.7,275 L93.7,277 L93.7,277.4844 L93.075,278 L93.075,278 L92.7,278 L92.325,278 L91.7,277.4844 L91.7,277.4844 L91.7,277 L90.7,277 Z "/><text fill="#000000" font-family="sans-serif" font-size="12" lengthAdjust="spacingAndGlyphs" textLength="58" x="108.8" y="280.9102">Abschluss</text><line style="stroke: #A80036; stroke-width: 1.5;" x1="66.5" x2="180.5" y1="292" y2="292"/><text fill="#000000" font-family="sans-serif" font-size="11" lengthAdjust="spacingAndGlyphs" textLength="101" x="71.5" y="307.4189">Hochschulabschluss</text><text fill="#000000" font-family="sans-serif" font-size="11" lengthAdjust="spacingAndGlyphs" textLength="69" x="71.5" y="321.2549">Staatsexamen</text><text fill="#000000" font-family="sans-serif" font-size="11" lengthAdjust="spacingAndGlyphs" textLength="104" x="71.5" y="335.0908">kirchlicher Abschluss</text><line style="stroke: #A80036; stroke-width: 1.5;" x1="66.5" x2="180.5" y1="341.5078" y2="341.5078"/><!--MD5=[20345b103d4ae175de1e584b7b3e45c1]
link Studien und Prüfungsordnung to Studiengang--><path d="M314.154,56.033 C299.429,76.782 277.755,107.323 262.103,129.377 " fill="none" id="Studien und Prüfungsordnung-&gt;Studiengang" style="stroke: #A80036; stroke-width: 1.0;"/><polygon fill="#A80036" points="259.057,133.67,267.5284,128.6466,261.9513,129.5929,261.005,124.0157,259.057,133.67" style="stroke: #A80036; stroke-width: 1.0;"/><text fill="#000000" font-family="sans-serif" font-size="13" lengthAdjust="spacingAndGlyphs" textLength="32" x="292.5" y="100.4951">regelt</text><text fill="#000000" font-family="sans-serif" font-size="13" lengthAdjust="spacingAndGlyphs" textLength="5" x="304.5603" y="77.379">*</text><text fill="#000000" font-family="sans-serif" font-size="13" lengthAdjust="spacingAndGlyphs" textLength="7" x="255.2396" y="123.3275">1</text><!--MD5=[1ac709855cec675a9bdf01b2b431ecf8]
link Studiengang to Abschluss--><path d="M191.334,180.576 C177.114,188.657 162.772,199.086 152.5,212 C142.759,224.246 136.265,239.809 131.946,254.6356 " fill="none" id="Studiengang-&gt;Abschluss" style="stroke: #A80036; stroke-width: 1.0;"/><polygon fill="#A80036" points="130.563,259.6298,136.8197,252.0236,131.8973,254.8111,129.1098,249.8887,130.563,259.6298" style="stroke: #A80036; stroke-width: 1.0;"/><text fill="#000000" font-family="sans-serif" font-size="13" lengthAdjust="spacingAndGlyphs" textLength="92" x="153.5" y="226.4951">ausgerichtet auf</text><text fill="#000000" font-family="sans-serif" font-size="13" lengthAdjust="spacingAndGlyphs" textLength="7" x="176.6466" y="180.1456">1</text><text fill="#000000" font-family="sans-serif" font-size="13" lengthAdjust="spacingAndGlyphs" textLength="7" x="124.1086" y="249.0174">1</text><!--MD5=[66877d8b68e3f5138b4e8845ca30b61e]
link Studiengang to Studium--><path d="M247.963,182.297 C252.944,203.542 260.429,235.46 266.483,261.2797 " fill="none" id="Studiengang-&gt;Studium" style="stroke: #A80036; stroke-width: 1.0;"/><polygon fill="none" points="273.3,259.6911,271.051,280.7611,259.67,262.8873,273.3,259.6911" style="stroke: #A80036; stroke-width: 1.0;"/><!--MD5=[69f8e4282ee925d124b3df80b1142c11]
link Grundständiger Studiengang to Studiengang--><path d="M127.691,56.033 C148.237,74.102 177.226,99.596 200.934,120.446 " fill="none" id="Grundständiger Studiengang-&gt;Studiengang" style="stroke: #A80036; stroke-width: 1.0;"/><polygon fill="none" points="205.575,115.205,215.971,133.67,196.33,125.718,205.575,115.205" style="stroke: #A80036; stroke-width: 1.0;"/><!--MD5=[434d58306e55eae6f58e740a0d6a0027]
reverse link Grundständiger Studiengang to Abschluss--><path d="M104.4386,69.199 C108.438,118.463 115.589,206.555 119.904,259.7048 " fill="none" id="Grundständiger Studiengang&lt;-Abschluss" style="stroke: #A80036; stroke-width: 1.0;"/><polygon fill="#A80036" points="103.3757,56.105,99.8748,62.4092,104.3475,68.0656,107.8485,61.7613,103.3757,56.105" style="stroke: #A80036; stroke-width: 1.0;"/><!--MD5=[b48a9e873034781ee5d45c478805b508]
@startuml

interface Studium
class Studiengang
class "Studien und Prüfungsordnung"
class "Grundständiger Studiengang"

enum Abschluss {
Hochschulabschluss
Staatsexamen
kirchlicher Abschluss
}

"Studien und Prüfungsordnung" "*" - -> "1" Studiengang : regelt
Studiengang "1" - -> "1" Abschluss : ausgerichtet auf
Studiengang - -|> Studium
"Grundständiger Studiengang" - -|> Studiengang
"Grundständiger Studiengang" *- - Abschluss

@enduml

PlantUML version 1.2020.07(Sun Apr 19 13:42:40 CEST 2020)
(GPL source distribution)
Java Runtime: OpenJDK Runtime Environment
JVM: OpenJDK 64-Bit Server VM
Java Version: 11.0.6+8-b765.25
Operating System: Windows 10
Default Encoding: Cp1252
Language: en
Country: US
--></g></svg>